# xmcd CD database file
#
# Track frame offsets:
#	150
#	11703
#	24074
#	36748
#	48056
#	61232
#	75842
#	88465
#	100595
#	110661
#	125980
#	139235
#	151063
#	165645
#	178302
#
# Disc length: 2533 seconds
#
# Revision: 0
# Processed by: cddbd v1.5.2PL0 Copyright (c) Steve Scherf et al.
# Submitted via: CDex 1.70beta2
#
DISCID=c109e30f
DTITLE=Various Artist - The Country Box [CD5)
DYEAR=1900
DGENRE=Country
TTITLE0=Donna Fargo - The Happiest Girl In The USA
TTITLE1=Charlie Rich - Behind Closed Doors
TTITLE2=Roy Drusky - Three Hearts In A Tangle
TTITLE3=Porter Wagoner - Misery Loves Company
TTITLE4=Ray Price - What A Friend We Have In Jesus
TTITLE5=Connie Smith - Jesus Is Your Ticket To Heaven
TTITLE6=Dickey Lee - Never Ending Sopng Of Love
TTITLE7=Faron Young - Sweet Dreams
TTITLE8=Jack Reno - Hitchin' A Ride
TTITLE9=Melba Montgomery - No Charge
TTITLE10=Lacy J Dalton - Lifes Railway To Heaven
TTITLE11=Johnny Russell - Softly and Tenderly
TTITLE12=Johnny Paycheck - A Good Year For The Roses
TTITLE13=Jeannie Seely - I'll Love You More
TTITLE14=Stonewall Jackson - I Washed My Hands In Muddy Water
EXTD=
EXTT0=
EXTT1=
EXTT2=
EXTT3=
EXTT4=
EXTT5=
EXTT6=
EXTT7=
EXTT8=
EXTT9=
EXTT10=
EXTT11=
EXTT12=
EXTT13=
EXTT14=
PLAYORDER=
